<?xml version="1.0" encoding="iso-8859-1"?>
<!-- Generator: Adobe Illustrator 24.1.2, SVG Export Plug-In . SVG Version: 6.00 Build 0)  -->
<svg version="1.1" baseProfile="basic" id="Layer_1"
	 xmlns="http://www.w3.org/2000/svg" xmlns:xlink="http://www.w3.org/1999/xlink" x="0px" y="0px" viewBox="0 0 32 32"
	 xml:space="preserve">
<rect x="3" y="2" style="fill:#706D67;" width="8" height="2"/>
<rect x="21" y="28" style="fill:#706D67;" width="8" height="2"/>
<rect x="5" y="4" style="fill:#706D67;" width="2" height="3"/>
<rect x="7" y="7" style="fill:#706D67;" width="2" height="3"/>
<rect x="11" y="4" style="fill:#706D67;" width="2" height="3"/>
<rect x="9" y="10" style="fill:#706D67;" width="2" height="3"/>
<rect x="13" y="7" style="fill:#706D67;" width="2" height="3"/>
<rect x="11" y="13" style="fill:#706D67;" width="2" height="3"/>
<rect x="15" y="10" style="fill:#706D67;" width="2" height="3"/>
<rect x="13" y="16" style="fill:#706D67;" width="2" height="3"/>
<rect x="17" y="13" style="fill:#706D67;" width="2" height="3"/>
<rect x="19" y="10" style="fill:#706D67;" width="2" height="3"/>
<rect x="11" y="19" style="fill:#706D67;" width="2" height="3"/>
<rect x="9" y="22" style="fill:#706D67;" width="2" height="3"/>
<rect x="7" y="25" style="fill:#706D67;" width="2" height="3"/>
<rect x="5" y="28" style="fill:#706D67;" width="2" height="2"/>
<rect x="21" y="7" style="fill:#706D67;" width="2" height="3"/>
<rect x="23" y="4" style="fill:#706D67;" width="2" height="3"/>
<rect x="25" y="2" style="fill:#706D67;" width="2" height="2"/>
<rect x="15" y="19" style="fill:#706D67;" width="2" height="3"/>
<rect x="19" y="16" style="fill:#706D67;" width="2" height="3"/>
<rect x="17" y="22" style="fill:#706D67;" width="2" height="3"/>
<rect x="21" y="19" style="fill:#706D67;" width="2" height="3"/>
<rect x="19" y="25" style="fill:#706D67;" width="2" height="3"/>
<rect x="23" y="22" style="fill:#706D67;" width="2" height="3"/>
<rect x="25" y="25" style="fill:#706D67;" width="2" height="3"/>
</svg>