<?xml version="1.0" encoding="iso-8859-1"?>
<!-- Generator: Adobe Illustrator 24.1.2, SVG Export Plug-In . SVG Version: 6.00 Build 0)  -->
<svg version="1.1" baseProfile="basic" id="Layer_1"
	 xmlns="http://www.w3.org/2000/svg" xmlns:xlink="http://www.w3.org/1999/xlink" x="0px" y="0px" viewBox="0 0 32 32"
	 xml:space="preserve">
<polygon style="fill:#F9C292;" points="28,11 4,11 4,26 7,26 7,28 25,28 25,26 28,26 "/>
<polygon style="fill:#D38754;" points="25,6 25,4 7,4 7,6 4,6 4,13 28,13 28,6 "/>
<rect x="13" y="4" style="fill:#589BD4;" width="2" height="9"/>
<rect x="11" y="4" style="fill:#91C14B;" width="2" height="9"/>
<rect x="9" y="4" style="fill:#FCC201;" width="2" height="9"/>
<rect x="7" y="4" style="fill:#E41E2F;" width="2" height="9"/>
<polygon style="fill:#E6E5E5;" points="21,13 21,11 19,11 19,9 13,9 13,11 11,11 11,13 9,13 9,19 11,19 11,21 13,21 13,23 19,23 
	19,21 21,21 21,19 23,19 23,13 "/>
<polygon style="fill:#706D67;" points="21,13 19,13 19,11 13,11 13,13 11,13 11,19 13,19 13,21 19,21 19,19 21,19 "/>
<rect x="13" y="13" style="fill:#E6E5E5;" width="2" height="2"/>
</svg>