<?xml version="1.0" encoding="iso-8859-1"?>
<!-- Generator: Adobe Illustrator 24.1.2, SVG Export Plug-In . SVG Version: 6.00 Build 0)  -->
<svg version="1.1" baseProfile="basic" id="Layer_1"
	 xmlns="http://www.w3.org/2000/svg" xmlns:xlink="http://www.w3.org/1999/xlink" x="0px" y="0px" viewBox="0 0 32 32"
	 xml:space="preserve">
<polygon style="fill:#589BD4;" points="30,7 30,9 28,9 28,15 26,15 26,19 24,19 24,24 22,24 22,26 18,26 18,28 10,28 10,26 5,26 
	5,24 10,24 10,22 5,22 5,18 2,18 2,13 0,13 0,9 2,9 2,11 16,11 16,9 18,9 18,7 20,7 20,5 26,5 26,7 "/>
<rect x="2" y="16" style="fill:#26659F;" width="7" height="2"/>
<rect x="5" y="20" style="fill:#26659F;" width="5" height="2"/>
</svg>